<svg xmlns="http://www.w3.org/2000/svg" viewBox="0 0 100 50"><defs><style>.cls-1{font-size:36.98px;font-family:TinaandBen-BoldItalic, Tina and Ben;font-weight:700;font-style:italic;letter-spacing:-0.01em;}.cls-2{fill:#e3aab6;}.cls-3{font-size:4.16px;font-family:GoodSans-Regular, Good Sans;}.cls-4{letter-spacing:-0.01em;}.cls-5{letter-spacing:0em;}.cls-6{letter-spacing:-0.01em;}.cls-7{letter-spacing:-0.02em;}.cls-8{letter-spacing:-0.03em;}.cls-9{letter-spacing:-0.02em;}.cls-10{letter-spacing:-0.04em;}</style></defs><title>*Calculator Logotype_Randazzo_Artboard 2_Artboard 2_Artboard 1</title><g id="Layer_6" data-name="Layer 6"><text class="cls-1" transform="translate(-2.83 31.83)">CIC</text><rect class="cls-2" x="38.44" y="0.53" width="5.77" height="5.77" rx="2.08"/><path d="M42.92,6.44H39.68A1.43,1.43,0,0,1,38.25,5V1.77A1.44,1.44,0,0,1,39.68.34h3.24a1.44,1.44,0,0,1,1.43,1.43V5A1.43,1.43,0,0,1,42.92,6.44ZM39.68.9a.88.88,0,0,0-.88.87V5a.88.88,0,0,0,.88.87h3.24A.87.87,0,0,0,43.79,5V1.77A.87.87,0,0,0,42.92.9Z"/><rect x="3.38" y="33.62" width="0.42" height="14.97"/><rect x="3.32" y="48.1" width="27.73" height="0.42"/><text class="cls-3" transform="translate(33.99 48.39)">C<tspan class="cls-4" x="3.59" y="0">o</tspan><tspan class="cls-5" x="6.2" y="0">mpound I</tspan><tspan class="cls-6" x="25.78" y="0">n</tspan><tspan class="cls-7" x="28.29" y="0">t</tspan><tspan x="30.06" y="0">e</tspan><tspan class="cls-8" x="32.56" y="0">r</tspan><tspan x="34.07" y="0">e</tspan><tspan class="cls-9" x="36.56" y="0">s</tspan><tspan x="38.81" y="0">t Calcul</tspan><tspan class="cls-10" x="55.16" y="0">a</tspan><tspan class="cls-7" x="57.56" y="0">t</tspan><tspan class="cls-4" x="59.33" y="0">o</tspan><tspan class="cls-5" x="61.94" y="0">r </tspan></text></g></svg>
